<?xml version="1.0" encoding="UTF-8" standalone="no"?>
<svg width="214px" height="214px" viewBox="0 0 214 214" version="1.1" xmlns="http://www.w3.org/2000/svg" xmlns:xlink="http://www.w3.org/1999/xlink" xmlns:sketch="http://www.bohemiancoding.com/sketch/ns">
    <!-- Generator: Sketch 3.1 (8751) - http://www.bohemiancoding.com/sketch -->
    <title>star</title>
    <desc>Created with Sketch.</desc>
    <defs></defs>
    <g id="Page-1" stroke="none" stroke-width="1" fill="none" fill-rule="evenodd" sketch:type="MSPage">
        <g id="star" sketch:type="MSArtboardGroup" fill="#FFFFFF">
            <path d="M75.6425325,212.2 C69.4425325,212.2 63.2425325,210.3 58.1425325,206.6 L30.3425325,186.6 C23.6425325,181.8 19.1425325,174.3 18.1425325,166.1 C17.1425325,157.9 19.4425325,149.6 24.7425325,143.2 L32.9425325,133.3 L23.9425325,130.8 C16.0425325,128.6 9.44253251,123.2 5.54253251,116 C1.64253251,108.8 0.94253251,100.3 3.54253251,92.5 L13.7425325,61 C16.3425325,53.1 22.0425325,46.7 29.5425325,43.2 C37.0425325,39.7 45.6425325,39.5 53.3425325,42.6 L61.1425325,45.7 L60.3425325,34.1 C59.7425325,25.8 62.6425325,17.6 68.3425325,11.5 C74.0425325,5.4 81.9425325,2 90.2425325,2 L124.742533,2 C133.042533,2 141.042533,5.5 146.642533,11.5 C152.342533,17.6 155.242533,25.8 154.642533,34.1 L153.842533,45 L159.242533,42.7 C166.842533,39.5 175.442533,39.6 183.042533,43 C190.542533,46.4 196.442533,52.7 199.142533,60.5 L210.042533,91.8 C212.742533,99.6 212.142533,108.2 208.342533,115.6 C204.542533,122.9 197.842533,128.4 189.842533,130.6 L179.142533,133.6 L187.042533,143.7 C192.042533,150.1 194.142533,158.2 193.042533,166.2 C191.942533,174.2 187.642533,181.4 181.042533,186.2 L153.742533,206.2 C147.042533,211.1 138.542533,213 130.342533,211.5 C122.142533,209.9 115.042533,205.1 110.542533,198 L105.642533,190.2 L100.942533,197.8 C96.5425325,204.9 89.4425325,209.9 81.3425325,211.5 C79.6425325,212 77.6425325,212.2 75.6425325,212.2 Z M90.3425325,32 L124.842533,32 L120.642533,91.4 L171.042533,70.5 L181.942533,101.8 L128.242533,116.7 L163.442533,162.2 L136.242533,182.2 L105.542533,133.5 L75.6425325,182.2 L47.8425325,162.2 L85.3425325,116.7 L31.9425325,101.8 L42.2425325,70.5 L94.5425325,91.4 L90.3425325,32 Z" id="Shape-3" sketch:type="MSShapeGroup"></path>
        </g>
    </g>
</svg>