<?xml version="1.0" encoding="UTF-8" standalone="no"?>
<svg width="588px" height="190px" viewBox="0 0 588 190" version="1.1" xmlns="http://www.w3.org/2000/svg" xmlns:xlink="http://www.w3.org/1999/xlink" xmlns:sketch="http://www.bohemiancoding.com/sketch/ns">
    <!-- Generator: Sketch 3.1 (8751) - http://www.bohemiancoding.com/sketch -->
    <title>web-fundamentals-logo 2</title>
    <desc>Created with Sketch.</desc>
    <defs></defs>
    <g id="Page-1" stroke="none" stroke-width="1" fill="none" fill-rule="evenodd" sketch:type="MSPage">
        <g id="web-fundamentals-logo" sketch:type="MSLayerGroup" transform="translate(-10.000000, -10.000000)" fill="#FFFFFF">
            <g id="Page-1" sketch:type="MSShapeGroup">
                <g id="web-fundamentals-idea">
                    <g id="Layer_4" transform="translate(201.000000, 40.000000)">
                        <path d="M27.303219,102.396769 L11.236813,102.396769 L11.236813,123.6663 L1.428219,123.6663 L1.428219,72.4788 L30.186031,72.4788 L30.186031,80.494425 L11.236813,80.494425 L11.236813,94.4163 L27.303219,94.4163 L27.303219,102.396769 L27.303219,102.396769 Z M52.299313,119.482706 L52.193844,119.44755 C51.232901,121.041308 50.078616,122.260046 48.730953,123.1038 C47.38329,123.947554 45.830571,124.369425 44.07275,124.369425 C40.791484,124.369425 38.2544,123.115531 36.461422,120.607706 C34.668444,118.099881 33.771969,114.103827 33.771969,108.619425 L33.771969,85.6272375 L43.580563,85.6272375 L43.580563,108.689738 C43.580563,111.431939 43.867669,113.39481 44.441891,114.578409 C45.016112,115.762009 45.912588,116.3538 47.131344,116.3538 C48.139161,116.3538 49.012199,116.166302 49.750484,115.7913 C50.488769,115.416298 51.127435,114.842085 51.6665,114.068644 L51.6665,85.6272375 L61.439938,85.6272375 L61.439938,123.6663 L52.861813,123.6663 L52.299313,119.482706 L52.299313,119.482706 Z M76.627438,85.6272375 L77.014156,90.232706 L77.119625,90.267863 C78.080567,88.5803541 79.264149,87.2678672 80.670406,86.3303625 C82.076663,85.3928578 83.658679,84.9241125 85.4165,84.9241125 C88.510265,84.9241125 90.906726,86.1135537 92.605953,88.4924719 C94.30518,90.87139 95.154781,94.720961 95.154781,100.0413 L95.154781,123.6663 L85.346188,123.6663 L85.346188,100.0413 C85.346188,97.392849 85.012206,95.547165 84.344234,94.504191 C83.676262,93.461217 82.604007,92.939738 81.127438,92.939738 C80.330559,92.939738 79.615722,93.138954 78.982906,93.537394 C78.350091,93.935833 77.787596,94.510046 77.295406,95.26005 L77.295406,123.6663 L67.486813,123.6663 L67.486813,85.6272375 L76.627438,85.6272375 L76.627438,85.6272375 Z M100.0415,104.857706 C100.0415,98.763926 101.07274,93.918271 103.13525,90.320597 C105.19776,86.7229226 108.174293,84.9241125 112.064938,84.9241125 C113.447757,84.9241125 114.678213,85.2463749 115.756344,85.8909094 C116.834474,86.5354438 117.795402,87.4553565 118.639156,88.650675 L118.744625,88.6155188 L118.744625,68.82255 L128.588375,68.82255 L128.588375,123.6663 L120.080563,123.6663 L119.44775,119.763956 L119.342281,119.763956 C118.428214,121.287401 117.373537,122.435827 116.178219,123.209269 C114.9829,123.98271 113.588383,124.369425 111.994625,124.369425 C108.127418,124.369425 105.168463,122.687801 103.117672,119.324503 C101.06688,115.961205 100.0415,111.385079 100.0415,105.595988 L100.0415,104.857706 L100.0415,104.857706 Z M109.814938,105.595988 C109.814938,109.064755 110.166496,111.724884 110.869625,113.576456 C111.572754,115.428028 112.80321,116.3538 114.561031,116.3538 C115.475098,116.3538 116.277825,116.142865 116.969234,115.720988 C117.660644,115.29911 118.252435,114.654586 118.744625,113.787394 L118.744625,96.033488 C118.228997,95.049108 117.631347,94.287396 116.951656,93.748331 C116.271965,93.209266 115.498536,92.939738 114.631344,92.939738 C112.873522,92.939738 111.631347,94.006133 110.904781,96.138956 C110.178215,98.271779 109.814938,101.178 109.814938,104.857706 L109.814938,105.595988 L109.814938,105.595988 Z M152.459469,123.6663 C152.201655,123.010047 151.973142,122.330366 151.773922,121.627238 C151.574702,120.924109 151.404782,120.174116 151.264156,119.377238 C150.373527,120.900683 149.312991,122.113561 148.082516,123.015909 C146.852041,123.918258 145.40479,124.369425 143.740719,124.369425 C140.693829,124.369425 138.27979,123.361623 136.498531,121.345988 C134.717272,119.330352 133.826656,116.564755 133.826656,113.049113 C133.826656,109.228781 134.939926,106.310841 137.1665,104.295206 C139.393074,102.279571 142.803196,101.271769 147.396969,101.271769 L150.842281,101.271769 L150.842281,98.178019 C150.842281,96.303009 150.555175,94.873336 149.980953,93.888956 C149.406732,92.904576 148.510256,92.412394 147.2915,92.412394 C146.236807,92.412394 145.475096,92.799109 145.006344,93.57255 C144.537591,94.345991 144.303219,95.506136 144.303219,97.053019 L134.494625,97.053019 C134.494625,93.560814 135.701644,90.666311 138.115719,88.369425 C140.529793,86.0725385 143.799292,84.9241125 147.924313,84.9241125 C151.768082,84.9241125 154.850082,86.0549606 157.170406,88.3166906 C159.49073,90.578421 160.650875,93.888934 160.650875,98.248331 L160.650875,113.646769 C160.650875,115.521778 160.773921,117.250276 161.020016,118.832316 C161.266111,120.414355 161.658685,122.025667 162.19775,123.6663 L152.459469,123.6663 L152.459469,123.6663 Z M146.588375,116.881144 C147.479004,116.881144 148.293449,116.635052 149.031734,116.142863 C149.770019,115.650673 150.373529,114.994429 150.842281,114.174113 L150.842281,107.002238 L147.396969,107.002238 C146.014149,107.002238 145.035643,107.517857 144.461422,108.549113 C143.8872,109.580368 143.600094,110.92801 143.600094,112.592081 C143.600094,113.88115 143.863763,114.918249 144.391109,115.703409 C144.918456,116.48857 145.65087,116.881144 146.588375,116.881144 L146.588375,116.881144 L146.588375,116.881144 Z M176.049313,85.6272375 L176.400875,89.810831 L176.506344,89.845988 C177.443848,88.2756671 178.603993,87.0627887 179.986813,86.2073156 C181.369632,85.3518426 182.998522,84.9241125 184.873531,84.9241125 C186.701665,84.9241125 188.266103,85.3928578 189.566891,86.3303625 C190.867678,87.2678672 191.904777,88.7209777 192.678219,90.689738 C193.615723,88.8381657 194.793446,87.4143519 196.211422,86.4182531 C197.629398,85.4221544 199.334459,84.9241125 201.326656,84.9241125 C204.373546,84.9241125 206.752429,86.1838655 208.463375,88.7034094 C210.174321,91.222953 211.029781,95.177992 211.029781,100.568644 L211.029781,123.6663 L201.221188,123.6663 L201.221188,100.568644 C201.221188,97.638942 200.928222,95.635055 200.342281,94.556925 C199.756341,93.478795 198.854006,92.939738 197.63525,92.939738 C196.768058,92.963175 196.012206,93.203407 195.367672,93.660441 C194.723137,94.117474 194.178221,94.767858 193.732906,95.611613 C193.756344,96.197553 193.78564,96.724891 193.820797,97.193644 C193.855953,97.662396 193.873531,98.131141 193.873531,98.599894 L193.873531,123.6663 L184.064938,123.6663 L184.064938,100.498331 C184.064938,97.615504 183.777831,95.635055 183.203609,94.556925 C182.629388,93.478795 181.709475,92.939738 180.443844,92.939738 C179.646965,92.939738 178.943847,93.127236 178.334469,93.502238 C177.725091,93.877239 177.186034,94.416296 176.717281,95.119425 L176.717281,123.6663 L166.943844,123.6663 L166.943844,85.6272375 L176.049313,85.6272375 L176.049313,85.6272375 Z M231.033688,124.369425 C226.557103,124.369425 223.029794,122.822565 220.451656,119.7288 C217.873518,116.635035 216.584469,112.662418 216.584469,107.810831 L216.584469,102.467081 C216.584469,97.217055 217.791488,92.980769 220.205563,89.758097 C222.619637,86.5354245 226.076634,84.9241125 230.576656,84.9241125 C234.936053,84.9241125 238.258285,86.3889416 240.543453,89.318644 C242.828621,92.248346 243.971188,96.32643 243.971188,101.553019 L243.971188,107.670206 L226.393063,107.670206 L226.393063,107.810831 C226.393063,110.412407 226.850089,112.498323 227.764156,114.068644 C228.678223,115.638964 230.154771,116.424113 232.193844,116.424113 C234.420417,116.424113 236.11376,116.201458 237.273922,115.756144 C238.434084,115.310829 239.646962,114.61943 240.912594,113.681925 L242.881344,120.57255 C241.63915,121.744431 239.992682,122.670203 237.941891,123.349894 C235.891099,124.029585 233.588388,124.369425 231.033688,124.369425 L231.033688,124.369425 L231.033688,124.369425 Z M230.576656,92.939738 C229.100086,92.939738 228.057128,93.642855 227.44775,95.049113 C226.838372,96.45537 226.486813,98.435818 226.393063,100.990519 L234.408688,100.990519 L234.408688,99.584269 C234.408688,97.428008 234.109862,95.78154 233.512203,94.644816 C232.914544,93.508091 231.936038,92.939738 230.576656,92.939738 L230.576656,92.939738 L230.576656,92.939738 Z M257.998531,85.6272375 L258.38525,90.232706 L258.490719,90.267863 C259.451661,88.5803541 260.635243,87.2678672 262.0415,86.3303625 C263.447757,85.3928578 265.029772,84.9241125 266.787594,84.9241125 C269.881359,84.9241125 272.27782,86.1135537 273.977047,88.4924719 C275.676274,90.87139 276.525875,94.720961 276.525875,100.0413 L276.525875,123.6663 L266.717281,123.6663 L266.717281,100.0413 C266.717281,97.392849 266.3833,95.547165 265.715328,94.504191 C265.047356,93.461217 263.975101,92.939738 262.498531,92.939738 C261.701652,92.939738 260.986816,93.138954 260.354,93.537394 C259.721184,93.935833 259.15869,94.510046 258.6665,95.26005 L258.6665,123.6663 L248.857906,123.6663 L248.857906,85.6272375 L257.998531,85.6272375 L257.998531,85.6272375 Z M294.139156,76.1702063 L294.139156,85.6272375 L298.990719,85.6272375 L298.990719,92.869425 L294.139156,92.869425 L294.139156,111.924113 C294.139156,113.51787 294.332514,114.637 294.719234,115.281534 C295.105955,115.926069 295.639153,116.248331 296.318844,116.248331 C296.811034,116.248331 297.209467,116.224894 297.514156,116.178019 C297.818845,116.131144 298.158686,116.037394 298.533688,115.896769 L299.307125,123.349894 C298.486808,123.67802 297.625489,123.929971 296.723141,124.105753 C295.820792,124.281535 294.842287,124.369425 293.787594,124.369425 C290.670391,124.369425 288.314945,123.396778 286.721188,121.451456 C285.12743,119.506134 284.330563,116.342103 284.330563,111.959269 L284.330563,92.869425 L280.463375,92.869425 L280.463375,85.6272375 L284.330563,85.6272375 L284.330563,76.1702063 L294.139156,76.1702063 L294.139156,76.1702063 Z M320.82275,123.6663 C320.564936,123.010047 320.336423,122.330366 320.137203,121.627238 C319.937983,120.924109 319.768063,120.174116 319.627438,119.377238 C318.736808,120.900683 317.676272,122.113561 316.445797,123.015909 C315.215322,123.918258 313.768071,124.369425 312.104,124.369425 C309.05711,124.369425 306.643071,123.361623 304.861813,121.345988 C303.080554,119.330352 302.189938,116.564755 302.189938,113.049113 C302.189938,109.228781 303.303208,106.310841 305.529781,104.295206 C307.756355,102.279571 311.166477,101.271769 315.76025,101.271769 L319.205563,101.271769 L319.205563,98.178019 C319.205563,96.303009 318.918456,94.873336 318.344234,93.888956 C317.770013,92.904576 316.873537,92.412394 315.654781,92.412394 C314.600088,92.412394 313.838377,92.799109 313.369625,93.57255 C312.900873,94.345991 312.6665,95.506136 312.6665,97.053019 L302.857906,97.053019 C302.857906,93.560814 304.064925,90.666311 306.479,88.369425 C308.893075,86.0725385 312.162573,84.9241125 316.287594,84.9241125 C320.131363,84.9241125 323.213363,86.0549606 325.533688,88.3166906 C327.854012,90.578421 329.014156,93.888934 329.014156,98.248331 L329.014156,113.646769 C329.014156,115.521778 329.137202,117.250276 329.383297,118.832316 C329.629392,120.414355 330.021966,122.025667 330.561031,123.6663 L320.82275,123.6663 L320.82275,123.6663 Z M314.951656,116.881144 C315.842286,116.881144 316.656731,116.635052 317.395016,116.142863 C318.133301,115.650673 318.73681,114.994429 319.205563,114.174113 L319.205563,107.002238 L315.76025,107.002238 C314.377431,107.002238 313.398925,107.517857 312.824703,108.549113 C312.250482,109.580368 311.963375,110.92801 311.963375,112.592081 C311.963375,113.88115 312.227044,114.918249 312.754391,115.703409 C313.281737,116.48857 314.014152,116.881144 314.951656,116.881144 L314.951656,116.881144 L314.951656,116.881144 Z M345.467281,123.6663 L335.658688,123.6663 L335.658688,68.82255 L345.467281,68.82255 L345.467281,123.6663 L345.467281,123.6663 Z M367.896969,113.717081 C367.896969,112.615513 367.516113,111.683882 366.754391,110.922159 C365.992668,110.160437 364.486824,109.19365 362.236813,108.021769 C358.510231,106.568636 355.756353,104.957324 353.975094,103.187784 C352.193835,101.418244 351.303219,99.068658 351.303219,96.138956 C351.303219,92.974878 352.451645,90.314748 354.748531,88.1584875 C357.045418,86.0022267 360.174293,84.9241125 364.13525,84.9241125 C368.236833,84.9241125 371.477035,86.0432419 373.855953,88.2815344 C376.234871,90.519827 377.424313,93.467063 377.424313,97.123331 L367.686031,97.123331 C367.686031,95.482698 367.398925,94.205367 366.824703,93.2913 C366.250482,92.377233 365.342287,91.920206 364.100094,91.920206 C363.115714,91.920206 362.29541,92.277625 361.639156,92.992472 C360.982903,93.707319 360.654781,94.592076 360.654781,95.646769 C360.654781,96.771774 360.988762,97.66825 361.656734,98.336222 C362.324706,99.004194 363.830551,99.959263 366.174313,101.201456 C370.041519,102.584276 372.871569,104.189728 374.664547,106.017863 C376.457525,107.845997 377.354,110.295191 377.354,113.365519 C377.354,116.670223 376.146981,119.330352 373.732906,121.345988 C371.318832,123.361623 368.061052,124.369425 363.959469,124.369425 C359.670385,124.369425 356.330574,123.109672 353.939938,120.590128 C351.549301,118.070584 350.354,115.111629 350.354,111.713175 L359.564938,111.713175 C359.611813,113.775685 360.027824,115.234655 360.812984,116.090128 C361.598145,116.945601 362.728993,117.373331 364.205563,117.373331 C365.424319,117.373331 366.344231,117.056928 366.965328,116.424113 C367.586425,115.791297 367.896969,114.888962 367.896969,113.717081 L367.896969,113.717081 L367.896969,113.717081 Z" id="Fundamentals"></path>
                        <path d="M32.82295,40.1105438 L32.928419,40.1105438 L38.377637,4.1457 L45.19795,4.1457 L36.4792,55.3332 L30.151075,55.3332 L22.627637,19.4386688 L22.522169,19.4386688 L14.998731,55.3332 L8.670606,55.3332 L-0.048144,4.1457 L6.772169,4.1457 L12.2917,40.2160125 L12.397169,40.2160125 L19.850294,4.1457 L25.299512,4.1457 L32.82295,40.1105438 L32.82295,40.1105438 Z M63.233106,56.036325 C58.944022,56.036325 55.545619,54.4953248 53.037794,51.4132781 C50.529969,48.3312315 49.276075,44.2941625 49.276075,39.30195 L49.276075,33.7472625 C49.276075,28.6847372 50.51825,24.5597784 53.002637,21.3722625 C55.487025,18.1847466 58.721368,16.5910125 62.705762,16.5910125 C66.924534,16.5910125 70.12372,18.0382637 72.303419,20.9328094 C74.483117,23.8273551 75.57295,27.8058309 75.57295,32.8683563 L75.57295,37.7902313 L56.342481,37.7902313 L56.342481,39.30195 C56.342481,42.6769669 56.95185,45.4132676 58.170606,47.5109344 C59.389362,49.6086011 61.229188,50.6574188 63.690137,50.6574188 C65.940149,50.6574188 67.738959,50.3410157 69.086622,49.7082 C70.434285,49.0753843 71.600289,48.1730496 72.584669,47.0011688 L74.588575,51.5714813 C73.440132,52.9543007 71.91085,54.0441335 70.000684,54.8410125 C68.090519,55.6378915 65.834682,56.036325 63.233106,56.036325 L63.233106,56.036325 L63.233106,56.036325 Z M62.705762,22.0753875 C60.783878,22.0753875 59.272174,23.0597527 58.170606,25.0285125 C57.069038,26.9972723 56.459669,29.5519343 56.342481,32.692575 L68.612012,32.692575 L68.612012,31.2511688 C68.612012,28.5089675 68.125689,26.2941459 67.153028,24.6066375 C66.180367,22.9191291 64.69796,22.0753875 62.705762,22.0753875 L62.705762,22.0753875 L62.705762,22.0753875 Z M108.795606,39.4777313 C108.795606,44.6105694 107.781945,48.6534977 105.754591,51.6066375 C103.727237,54.5597773 100.780001,56.036325 96.912794,56.036325 C94.990909,56.036325 93.350301,55.6203135 91.990919,54.7882781 C90.631537,53.9562427 89.483111,52.7316456 88.545606,51.11445 L88.440137,51.1496063 L87.983106,55.3332 L81.865919,55.3332 L81.865919,0.48945 L88.897169,0.48945 L88.897169,20.9855438 L89.002637,20.9855438 C89.893267,19.5558491 90.9831,18.4660163 92.272169,17.7160125 C93.561238,16.9660088 95.08466,16.5910125 96.842481,16.5910125 C100.756563,16.5910125 103.727237,18.1730279 105.754591,21.3371063 C107.781945,24.5011846 108.795606,28.8253601 108.795606,34.3097625 L108.795606,39.4777313 L108.795606,39.4777313 Z M101.764356,34.3097625 C101.764356,30.5831814 101.242877,27.6242266 100.199903,25.4328094 C99.156929,23.2413922 97.440149,22.1457 95.049512,22.1457 C93.549505,22.1457 92.301471,22.6027267 91.305372,23.5167938 C90.309273,24.4308608 89.506547,25.6964732 88.897169,27.3136688 L88.897169,45.7355438 C89.483109,47.2589889 90.279976,48.4367115 91.287794,49.2687469 C92.295611,50.1007823 93.572942,50.5167938 95.119825,50.5167938 C97.5339,50.5167938 99.24482,49.5500065 100.252637,47.6164031 C101.260455,45.6827997 101.764356,42.9699362 101.764356,39.4777313 L101.764356,34.3097625 L101.764356,34.3097625 Z" id="Web"></path>
                    </g>
                </g>
            </g>
        </g>
    </g>
</svg>