<?xml version="1.0" encoding="UTF-8" standalone="no"?>
<svg width="523px" height="232px" viewBox="0 0 523 232" version="1.1" xmlns="http://www.w3.org/2000/svg" xmlns:xlink="http://www.w3.org/1999/xlink" xmlns:sketch="http://www.bohemiancoding.com/sketch/ns">
    <!-- Generator: Sketch 3.1 (8751) - http://www.bohemiancoding.com/sketch -->
    <title>WSK</title>
    <desc>Created with Sketch.</desc>
    <defs></defs>
    <g id="Page-1" stroke="none" stroke-width="1" fill="none" fill-rule="evenodd" sketch:type="MSPage">
        <path d="M229.520016,159.560831 C228.59423,158.435826 226.924325,157.299118 224.51025,156.150675 C219.330537,154.252228 215.492684,152.160452 212.996578,149.875284 C210.500472,147.590117 209.252438,144.279603 209.252438,139.943644 C209.252438,135.65456 210.711407,132.215141 213.629391,129.625284 C216.547374,127.035428 220.361789,125.740519 225.07275,125.740519 C229.783711,125.740519 233.580548,127.199489 236.463375,130.117472 C239.346202,133.035455 240.787594,136.826433 240.787594,141.490519 L230.979,141.490519 C230.979,139.076444 230.46338,137.160448 229.432125,135.742472 C228.40087,134.324496 226.889166,133.615519 224.896969,133.615519 C223.021959,133.615519 221.580568,134.213169 220.57275,135.408487 C219.564932,136.603806 219.061031,138.127228 219.061031,139.9788 C219.061031,141.689746 219.629385,143.078404 220.766109,144.144816 C221.902834,145.211227 223.912579,146.424106 226.795406,147.783487 C231.506367,149.447558 235.004379,151.510038 237.289547,153.970987 C239.574715,156.431937 240.717281,159.853778 240.717281,164.236612 C240.717281,168.760073 239.334483,172.252225 236.568844,174.713175 C233.803205,177.174125 230.029805,178.404581 225.248531,178.404581 C220.490695,178.404581 216.430189,176.998345 213.066891,174.185831 C209.703593,171.373317 208.021969,167.201484 208.021969,161.670206 L217.865719,161.670206 C217.865719,164.928035 218.45165,167.224887 219.623531,168.560831 C220.795412,169.896775 222.670393,170.564737 225.248531,170.564737 C227.217291,170.564737 228.652824,170.013962 229.555172,168.912394 C230.45752,167.810826 230.908688,166.275685 230.908688,164.306925 C230.908688,162.267852 230.445802,160.685837 229.520016,159.560831 L229.520016,159.560831 Z M257.768063,130.170206 L257.768063,139.627237 L262.619625,139.627237 L262.619625,146.869425 L257.768063,146.869425 L257.768063,165.924112 C257.768063,167.51787 257.96142,168.637 258.348141,169.281534 C258.734861,169.926069 259.268059,170.248331 259.94775,170.248331 C260.43994,170.248331 260.838373,170.224894 261.143063,170.178019 C261.447752,170.131144 261.787592,170.037394 262.162594,169.896769 L262.936031,177.349894 C262.115715,177.67802 261.254395,177.929971 260.352047,178.105753 C259.449699,178.281535 258.471193,178.369425 257.4165,178.369425 C254.299297,178.369425 251.943852,177.396778 250.350094,175.451456 C248.756336,173.506134 247.959469,170.342103 247.959469,165.959269 L247.959469,146.869425 L244.092281,146.869425 L244.092281,139.627237 L247.959469,139.627237 L247.959469,130.170206 L257.768063,130.170206 L257.768063,130.170206 Z M284.451656,177.6663 C284.193842,177.010047 283.965329,176.330366 283.766109,175.627237 C283.56689,174.924109 283.396969,174.174116 283.256344,173.377237 C282.365714,174.900683 281.305178,176.113561 280.074703,177.015909 C278.844228,177.918258 277.396977,178.369425 275.732906,178.369425 C272.686016,178.369425 270.271978,177.361623 268.490719,175.345987 C266.70946,173.330352 265.818844,170.564755 265.818844,167.049112 C265.818844,163.228781 266.932114,160.310841 269.158688,158.295206 C271.385261,156.279571 274.795383,155.271769 279.389156,155.271769 L282.834469,155.271769 L282.834469,152.178019 C282.834469,150.303009 282.547362,148.873336 281.973141,147.888956 C281.398919,146.904576 280.502444,146.412394 279.283688,146.412394 C278.228995,146.412394 277.467284,146.799109 276.998531,147.57255 C276.529779,148.345991 276.295406,149.506136 276.295406,151.053019 L266.486813,151.053019 C266.486813,147.560814 267.693832,144.666311 270.107906,142.369425 C272.521981,140.072539 275.791479,138.924112 279.9165,138.924112 C283.760269,138.924112 286.84227,140.054961 289.162594,142.316691 C291.482918,144.578421 292.643063,147.888934 292.643063,152.248331 L292.643063,167.646769 C292.643063,169.521778 292.766108,171.250276 293.012203,172.832316 C293.258298,174.414355 293.650872,176.025667 294.189938,177.6663 L284.451656,177.6663 L284.451656,177.6663 Z M278.580563,170.881144 C279.471192,170.881144 280.285637,170.635052 281.023922,170.142862 C281.762207,169.650673 282.365716,168.994429 282.834469,168.174112 L282.834469,161.002237 L279.389156,161.002237 C278.006337,161.002237 277.027831,161.517857 276.453609,162.549112 C275.879388,163.580368 275.592281,164.92801 275.592281,166.592081 C275.592281,167.88115 275.85595,168.918249 276.383297,169.703409 C276.910643,170.48857 277.643058,170.881144 278.580563,170.881144 L278.580563,170.881144 L278.580563,170.881144 Z M316.057125,148.732706 L312.436031,148.627237 C311.475089,148.627237 310.689941,148.867469 310.080563,149.347941 C309.471184,149.828412 308.990721,150.52567 308.639156,151.439737 L308.639156,177.6663 L298.865719,177.6663 L298.865719,139.627237 L308.0415,139.627237 L308.357906,144.549112 L308.463375,144.549112 C309.096191,142.767854 309.910636,141.385055 310.906734,140.400675 C311.902833,139.416295 313.080556,138.924112 314.439938,138.924112 C314.861815,138.924112 315.312982,138.965128 315.793453,139.047159 C316.273924,139.129191 316.701654,139.228799 317.076656,139.345987 L316.057125,148.732706 L316.057125,148.732706 Z M333.740719,130.170206 L333.740719,139.627237 L338.592281,139.627237 L338.592281,146.869425 L333.740719,146.869425 L333.740719,165.924112 C333.740719,167.51787 333.934076,168.637 334.320797,169.281534 C334.707518,169.926069 335.240715,170.248331 335.920406,170.248331 C336.412596,170.248331 336.81103,170.224894 337.115719,170.178019 C337.420408,170.131144 337.760248,170.037394 338.13525,169.896769 L338.908688,177.349894 C338.088371,177.67802 337.227051,177.929971 336.324703,178.105753 C335.422355,178.281535 334.443849,178.369425 333.389156,178.369425 C330.271953,178.369425 327.916508,177.396778 326.32275,175.451456 C324.728992,173.506134 323.932125,170.342103 323.932125,165.959269 L323.932125,146.869425 L320.064938,146.869425 L320.064938,139.627237 L323.932125,139.627237 L323.932125,130.170206 L333.740719,130.170206 L333.740719,130.170206 Z M356.521969,178.369425 C352.045384,178.369425 348.518075,176.822565 345.939938,173.7288 C343.3618,170.635035 342.07275,166.662418 342.07275,161.810831 L342.07275,156.467081 C342.07275,151.217055 343.279769,146.980769 345.693844,143.758097 C348.107918,140.535425 351.564915,138.924112 356.064938,138.924112 C360.424334,138.924112 363.746567,140.388942 366.031734,143.318644 C368.316902,146.248346 369.459469,150.32643 369.459469,155.553019 L369.459469,161.670206 L351.881344,161.670206 L351.881344,161.810831 C351.881344,164.412407 352.33837,166.498323 353.252438,168.068644 C354.166505,169.638964 355.643052,170.424112 357.682125,170.424112 C359.908699,170.424112 361.602041,170.201458 362.762203,169.756144 C363.922365,169.310829 365.135244,168.61943 366.400875,167.681925 L368.369625,174.57255 C367.127431,175.744431 365.480963,176.670203 363.430172,177.349894 C361.37938,178.029585 359.076669,178.369425 356.521969,178.369425 L356.521969,178.369425 L356.521969,178.369425 Z M356.064938,146.939737 C354.588368,146.939737 353.545409,147.642855 352.936031,149.049112 C352.326653,150.45537 351.975094,152.435818 351.881344,154.990519 L359.896969,154.990519 L359.896969,153.584269 C359.896969,151.428008 359.598144,149.78154 359.000484,148.644816 C358.402825,147.508091 357.424319,146.939737 356.064938,146.939737 L356.064938,146.939737 L356.064938,146.939737 Z M391.713375,148.732706 L388.092281,148.627237 C387.131339,148.627237 386.346191,148.867469 385.736813,149.347941 C385.127434,149.828412 384.646971,150.52567 384.295406,151.439737 L384.295406,177.6663 L374.521969,177.6663 L374.521969,139.627237 L383.69775,139.627237 L384.014156,144.549112 L384.119625,144.549112 C384.752441,142.767854 385.566886,141.385055 386.562984,140.400675 C387.559083,139.416295 388.736806,138.924112 390.096188,138.924112 C390.518065,138.924112 390.969232,138.965128 391.449703,139.047159 C391.930174,139.129191 392.357904,139.228799 392.732906,139.345987 L391.713375,148.732706 L391.713375,148.732706 Z M426.553219,156.396769 L422.545406,156.396769 L422.545406,177.6663 L412.736813,177.6663 L412.736813,126.4788 L422.545406,126.4788 L422.545406,147.2913 L425.498531,147.2913 L434.709469,126.4788 L446.69775,126.4788 L433.830563,149.998331 L447.787594,177.6663 L435.869625,177.6663 L426.553219,156.396769 L426.553219,156.396769 Z M460.76025,177.6663 L450.951656,177.6663 L450.951656,139.627237 L460.76025,139.627237 L460.76025,177.6663 L460.76025,177.6663 Z M460.76025,130.451456 L450.951656,130.451456 L450.951656,122.82255 L460.76025,122.82255 L460.76025,130.451456 L460.76025,130.451456 Z M479.006344,130.170206 L479.006344,139.627237 L483.857906,139.627237 L483.857906,146.869425 L479.006344,146.869425 L479.006344,165.924112 C479.006344,167.51787 479.199701,168.637 479.586422,169.281534 C479.973143,169.926069 480.50634,170.248331 481.186031,170.248331 C481.678221,170.248331 482.076655,170.224894 482.381344,170.178019 C482.686033,170.131144 483.025873,170.037394 483.400875,169.896769 L484.174313,177.349894 C483.353996,177.67802 482.492676,177.929971 481.590328,178.105753 C480.68798,178.281535 479.709474,178.369425 478.654781,178.369425 C475.537578,178.369425 473.182133,177.396778 471.588375,175.451456 C469.994617,173.506134 469.19775,170.342103 469.19775,165.959269 L469.19775,146.869425 L465.330563,146.869425 L465.330563,139.627237 L469.19775,139.627237 L469.19775,130.170206 L479.006344,130.170206 L479.006344,130.170206 Z" id="Starter-Kit" stroke="#DA2E75" stroke-width="54" stroke-linecap="round" stroke-linejoin="round" sketch:type="MSShapeGroup"></path>
        <g id="WSK" sketch:type="MSArtboardGroup">
            <path d="M335.4,61 C331.8,55.3 327,50.8 321.5,47.7 C317.7,35.4 306.3,26.5 292.8,26.5 L288.7,26.5 C280.8,26.5 273.6,29.6 268.2,34.6 C263.5,31.7 258.1,30.1 252.5,30.1 L208,30.1 C199.1,30.1 190.7,34 185,40.9 C179.3,47.7 176.9,56.7 178.5,65.5 L187.8,116.7 C190.4,131 202.8,141.3 217.3,141.3 L221,141.3 C224.2,141.3 227.3,140.8 230.2,139.9 C233.1,140.8 236.2,141.3 239.4,141.3 L243.1,141.3 C247,141.3 250.8,140.5 254.3,139.1 C259.1,141 264.3,142 269.8,142 C274,142 278,141.5 281.7,140.5 C283.9,141 286.2,141.3 288.6,141.3 L292.2,141.3 L293.8,141.3 C296.4,141.8 299,142 301.7,142 C315.2,142 327.3,135.6 334.9,124.5 C340.3,116.5 343.1,106.8 343.1,95.6 L343.1,89.8 C343.2,78.7 340.6,69 335.4,61 L335.4,61 Z" id="Shape-5" fill="#DA2E75" sketch:type="MSShapeGroup"></path>
            <path d="M80.9,223.7 C74.7,223.7 68.5,221.8 63.4,218.1 L35.6,198.1 C28.9,193.3 24.4,185.8 23.4,177.6 C22.4,169.4 24.7,161.1 30,154.7 L38.2,144.8 L29.2,142.3 C21.3,140.1 14.7,134.7 10.8,127.5 C6.9,120.3 6.2,111.8 8.8,104 L19,72.5 C21.6,64.6 27.3,58.2 34.8,54.7 C42.3,51.2 50.9,51 58.6,54.1 L66.4,57.2 L65.6,45.6 C65,37.3 67.9,29.1 73.6,23 C79.3,16.9 87.2,13.5 95.5,13.5 L130,13.5 C138.3,13.5 146.3,17 151.9,23 C157.6,29.1 160.5,37.3 159.9,45.6 L159.1,56.5 L164.5,54.2 C172.1,51 180.7,51.1 188.3,54.5 C195.8,57.9 201.7,64.2 204.4,72 L215.3,103.3 C218,111.1 217.4,119.7 213.6,127.1 C209.8,134.4 203.1,139.9 195.1,142.1 L184.4,145.1 L192.3,155.2 C197.3,161.6 199.4,169.7 198.3,177.7 C197.2,185.7 192.9,192.9 186.3,197.7 L159,217.7 C152.3,222.6 143.8,224.5 135.6,223 C127.4,221.4 120.3,216.6 115.8,209.5 L110.9,201.7 L106.2,209.3 C101.8,216.4 94.7,221.4 86.6,223 C84.9,223.5 82.9,223.7 80.9,223.7 L80.9,223.7 Z" id="Shape-2" fill="#DA2E75" sketch:type="MSShapeGroup"></path>
            <path d="M95.6,43.5 L130.1,43.5 L125.9,102.9 L176.3,82 L187.2,113.3 L133.5,128.2 L168.7,173.7 L141.5,193.7 L110.8,145 L80.9,193.7 L53.1,173.7 L90.6,128.2 L37.2,113.3 L47.5,82 L99.8,102.9 L95.6,43.5 Z" id="Shape-4" fill="#FFFFFF" sketch:type="MSShapeGroup"></path>
            <text id="Web-2" fill="#FFFFFF" sketch:type="MSTextLayer" font-family="Roboto Condensed" font-size="72" font-style="condensed" font-weight="normal">
                <tspan x="205.6667" y="109.3332">Web</tspan>
            </text>
            <text id="Starter-Kit-2" fill="#FFFFFF" sketch:type="MSTextLayer" font-family="Roboto Condensed" font-size="72" font-style="condensed" font-weight="bold">
                <tspan x="205.6665" y="177.6663">Starter Kit</tspan>
            </text>
        </g>
    </g>
</svg>